<?xml version="1.0" encoding="utf-8"?>
<svg version="1.1" xmlns:xlink="http://www.w3.org/1999/xlink" width="34px" height="34px" xmlns="http://www.w3.org/2000/svg">
  <g transform="matrix(1 0 0 1 -1210 -69 )">
    <path d="M 33.8988095238095 17.0388547207447  C 33.9023230820106 15.7071974734043  33.744212962963 14.4002659574468  33.4315062830688 13.1180601728723  C 33.1187996031746 11.8358543882979  32.6725777116402 10.6172290558511  32.0963541666667 9.45865192819149  C 31.5166170634921 8.30360704787234  30.7998511904762 7.2192071143617  29.946056547619 6.21604886968085  C 29.0922619047619 5.20935837765957  28.129546957672 4.29803856382979  27.0789930555556 3.49975066489362  C 26.5273644179894 3.10060671542553  25.9300595238095 2.94872007978723  25.2905919312169 3.04762300531915  C 24.6476107804233 3.15005817819149  24.1276041666667 3.46442819148936  23.727058531746 3.99426529255319  C 23.3265128968254 4.52410239361702  23.1754298941799 5.11398769946808  23.2738095238095 5.76745345744681  C 23.3757027116402 6.42091921542553  23.6884093915344 6.95075631648936  24.2189566798942 7.34990026595745  C 25.8000578703704 8.50847739361702  27.0122354497354 9.92844082446809  27.8554894179894 11.6133228058511  C 28.6987433862434 13.298204787234  29.1168568121693 15.1102476728723  29.1168568121693 17.0459192154255  C 29.1168568121693 18.7060754654255  28.8041501322751 20.270861037234  28.1717096560847 21.7438081781915  C 27.5462962962963 23.2132230718085  26.685474537037 24.4989611037234  25.5892443783069 25.5904255319149  C 24.4930142195767 26.6818899601064  23.2140790343915 27.5508228058511  21.7454117063492 28.1936918218085  C 20.2732308201058 28.8330285904255  18.7096974206349 29.1509308510638  17.0477843915344 29.1509308510638  C 15.3893849206349 29.1509308510638  13.825851521164 28.8294963430851  12.3536706349206 28.1901595744681  C 10.8814897486773 27.5508228058511  9.61309523809524 26.678357712766  8.51686507936508 25.583361037234  C 7.42414847883598 24.4918966090426  6.5562996031746 23.2061585771277  5.91683201058201 21.7367436835106  C 5.27385085978836 20.2673287898936  4.95411706349207 18.6990109707447  4.95411706349207 17.0388547207447  C 4.95411706349207 15.0784574468085  5.40736607142857 13.2204953457447  6.31035052910053 11.4755651595745  C 7.21684854497355 9.73063497340426  8.48524305555556 8.28947805851064  10.1155340608466 7.15562666223404  C 10.6671626984127 6.77767619680851  11.0044642857143 6.26196808510638  11.1133845899471 5.60850232712766  C 11.225818452381 4.95503656914894  11.0958167989418 4.35102227393617  10.7163525132275 3.79645944148936  C 10.3368882275132 3.26662234042553  9.82390873015873 2.94518783244681  9.17038690476191 2.83568816489362  C 8.5238921957672 2.72265625  7.91956018518519 2.85334940159574  7.36793154761905 3.23129986702128  C 6.24007936507936 4.0366522606383  5.23168816137566 4.94797207446809  4.35329861111111 5.96879155585106  C 3.47490906084656 6.98961103723404  2.71949404761905 8.08813996010638  2.09056712962963 9.26791057180851  C 1.46164021164021 10.4547456781915  0.980282738095238 11.7157579787234  0.660548941798942 13.0226894946809  C 0.337301587301587 14.3402177526596  0.168650793650793 15.6824717420213  0.168650793650793 17.0388547207447  C 0.168650793650793 19.3772024601064  0.614872685185185 21.5707280585106  1.50380291005291 23.6229637632979  C 2.39624669312169 25.6716672207447  3.60491071428571 27.458984375  5.12276785714286 28.977850731383  C 6.64413855820106 30.5002493351064  8.42551256613756 31.7082779255319  10.4739169973545 32.5984042553192  C 12.5223214285714 33.4920628324468  14.7147817460317 33.9371259973404  17.0512979497354 33.9371259973404  C 19.3632192460317 33.9371259973404  21.5416253306878 33.4920628324468  23.5935433201058 32.5984042553192  C 25.6384341931217 31.7047456781915  27.4303488756614 30.496717087766  28.9622602513227 28.977850731383  C 30.4941716269841 27.4554521276596  31.6993220899471 25.6716672207447  32.5812251984127 23.6229637632979  C 33.4596147486772 21.5742603058511  33.8988095238095 19.3772024601064  33.8988095238095 17.0388547207447  Z M 15.575603505291 17.4274019281915  C 16.0147982804233 17.8689328457447  16.5523726851852 18.0879321808511  17.1953538359788 18.0879321808511  C 17.810226521164 18.0879321808511  18.3407738095238 17.8689328457447  18.776455026455 17.4309341755319  C 19.2156498015873 16.9929355053191  19.4334904100529 16.4630984042553  19 15.8449551196808  L 19 2.30231881648936  C 19.4334904100529 1.68770777925532  19.2156498015873 1.15080618351064  18.776455026455 0.698678523936171  C 18.3372602513228 0.250083111702128  17.810226521164 0.0204870345744684  17.1953538359788 0.0204870345744684  C 16.5523726851852 0.0204870345744684  16.0147982804233 0.246550864361702  15.575603505291 0.698678523936171  C 15.1364087301587 1.14727393617021  14.9185681216931 1.68417553191489  15 2.30231881648936  L 15 15.8414228723404  C 14.9185681216931 16.4560339095745  15.1364087301587 16.9858710106383  15.575603505291 17.4274019281915  Z " fill-rule="nonzero" fill="#d7d7d7" stroke="none" transform="matrix(1 0 0 1 1210 69 )" />
  </g>
</svg>